<svg width="418" height="418" viewBox="0 0 418 418" fill="none" xmlns="http://www.w3.org/2000/svg">
<g clip-path="url(#clip0_333_285)">
<path d="M201.795 403.201H245.94C246.985 399.623 248.915 396.344 251.626 393.636L256.465 388.801H216.209C208.261 388.801 201.795 395.26 201.795 403.201Z" fill="#E2DFD3"/>
<path d="M28.8276 292.396V303.794C28.8276 318.453 23.78 332.83 14.6146 344.275L8.08704 352.428C2.87195 358.938 0 367.118 0 375.457C0 382.76 2.14315 389.832 6.19703 395.908L8.27622 399.023C10.0221 401.639 12.9418 403.2 16.0885 403.2C18.1064 403.2 20.1073 402.534 21.7216 401.323L40.3586 387.359C42.163 386.007 43.2414 383.853 43.2414 381.599V368.9C43.2414 360.666 47.8214 353.262 55.194 349.581C63.1982 345.58 70.0988 339.764 75.3868 332.616C57.748 321.843 42.0008 308.22 28.8276 292.396Z" fill="#E2DFD3"/>
<path d="M407.171 328.317L338.21 247.265C313.518 218.244 277.491 201.6 239.368 201.6H130.478C82.3757 201.6 43.2414 162.503 43.2414 114.446C43.2414 94.7323 50.0303 75.3966 62.3577 60.0021L66.9593 54.2547L72.6599 55.5435C78.7084 56.907 84.918 57.6 91.1159 57.6H135.57C140.294 57.6 144.138 53.7444 144.138 49.0059V48.7413C144.138 46.8846 143.472 45.0864 142.262 43.677L117.439 14.7456C109.401 5.3757 97.7048 0.0009 85.3513 0C74.0653 0 63.4522 4.3902 55.4715 12.3633C19.6992 48.1014 0 95.6152 0 146.153V172.8C0 224.326 23.353 273.075 62.3631 305.632C59.2641 296.278 57.6552 286.446 57.6552 276.44V273.6H72.0689V276.44C72.0689 291.996 76.6345 307.061 85.272 320.006C95.4941 335.323 100.897 353.152 100.897 371.561V382.474C100.897 388.477 98.5561 394.119 94.3077 398.365L88.8493 403.818C87.3232 405.343 86.4827 407.37 86.4827 409.527C86.4827 413.978 90.1078 417.601 94.5643 417.601H136.931C140.905 417.601 144.138 414.371 144.138 410.401V347.301C144.138 335.656 146.894 323.996 152.106 313.581L164.998 320.022C161.124 327.761 158.935 336.35 158.602 344.999C163.372 345.39 168.18 345.6 172.965 345.6H255.033C252.868 339.431 249.932 333.517 246.245 327.993C236.023 312.676 230.621 294.849 230.621 276.44V273.6H245.035V276.44C245.035 291.996 249.6 307.061 258.237 320.006C268.459 335.323 273.862 353.152 273.862 371.561V382.474C273.862 388.477 271.521 394.119 267.273 398.365L261.815 403.818C260.289 405.343 259.448 407.37 259.448 409.527C259.448 413.978 263.074 417.601 267.53 417.601H309.897C313.87 417.601 317.103 414.371 317.103 410.401V347.301C317.103 335.656 319.859 323.996 325.071 313.581L337.963 320.022C334 327.939 331.794 336.748 331.543 345.601H367.552C379.473 345.601 389.173 355.291 389.173 367.201C389.173 379.111 379.473 388.801 367.552 388.801H331.517V403.201H372.508C397.593 403.2 418 382.812 418 357.752C418 346.98 414.153 336.526 407.171 328.317ZM93.6897 14.4C97.6697 14.4 100.897 17.6238 100.897 21.6C100.897 25.5762 97.6697 28.8 93.6897 28.8C89.7096 28.8 86.4827 25.5762 86.4827 21.6C86.4827 17.6238 89.7096 14.4 93.6897 14.4Z" fill="#E2DFD3"/>
</g>
<defs>
<clipPath id="clip0_333_285">
<rect width="418" height="418" fill="white"/>
</clipPath>
</defs>
</svg>
