<svg width="40" height="50" viewBox="0 0 40 50" fill="none" xmlns="http://www.w3.org/2000/svg">
<path d="M19.3105 38.6208H23.5349C23.6349 38.2781 23.8196 37.964 24.079 37.7046L24.5421 37.2415H20.6899C19.9293 37.2415 19.3105 37.8602 19.3105 38.6208Z" fill="#2D3E30"/>
<path d="M2.75862 28.0073V29.099C2.75862 30.5031 2.2756 31.8802 1.39853 32.9765L0.773879 33.7574C0.274828 34.381 0 35.1645 0 35.9633C0 36.6628 0.205086 37.3402 0.593017 37.9222L0.791983 38.2206C0.959052 38.4711 1.23845 38.6207 1.53957 38.6207C1.73267 38.6207 1.92414 38.5569 2.07862 38.4409L3.86207 37.1033C4.03474 36.9738 4.13793 36.7675 4.13793 36.5516V35.3352C4.13793 34.5465 4.57621 33.8373 5.28172 33.4847C6.04767 33.1015 6.70802 32.5444 7.21405 31.8597C5.52612 30.8278 4.01922 29.523 2.75862 28.0073Z" fill="#2D3E30"/>
<path d="M38.9637 31.448L32.3646 23.6844C30.0017 20.9046 26.5542 19.3103 22.906 19.3103H12.4859C7.88284 19.3103 4.13793 15.5654 4.13793 10.9623C4.13793 9.07397 4.78759 7.2219 5.96724 5.74733L6.40759 5.19681L6.9531 5.32026C7.5319 5.45086 8.12612 5.51724 8.71922 5.51724H12.9732C13.4253 5.51724 13.7931 5.14793 13.7931 4.69405V4.66871C13.7931 4.49086 13.7294 4.31862 13.6136 4.18362L11.2382 1.41241C10.469 0.514914 9.34974 8.62069e-05 8.16759 0C7.08759 0 6.07198 0.420517 5.30828 1.18422C1.88509 4.60741 0 9.15854 0 13.9993V16.5517C0 21.4872 2.23474 26.1566 5.96776 29.2751C5.67121 28.3791 5.51724 27.4374 5.51724 26.4789V26.2069H6.89655V26.4789C6.89655 27.969 7.33345 29.412 8.16 30.6519C9.13819 32.1191 9.65517 33.8268 9.65517 35.5901V36.6354C9.65517 37.2104 9.43121 37.7509 9.02466 38.1576L8.50233 38.6799C8.35629 38.826 8.27586 39.0201 8.27586 39.2267C8.27586 39.6531 8.62276 40.0001 9.04922 40.0001H13.1034C13.4837 40.0001 13.7931 39.6907 13.7931 39.3104V33.2664C13.7931 32.151 14.0568 31.0341 14.5556 30.0365L15.7893 30.6534C15.4186 31.3947 15.2091 32.2174 15.1772 33.0459C15.6337 33.0833 16.0938 33.1034 16.5517 33.1034H24.4051C24.1979 32.5125 23.9169 31.9461 23.5641 31.417C22.5859 29.9498 22.069 28.2422 22.069 26.4789V26.2069H23.4483V26.4789C23.4483 27.969 23.8852 29.412 24.7117 30.6519C25.6899 32.1191 26.2069 33.8268 26.2069 35.5901V36.6354C26.2069 37.2104 25.9829 37.7509 25.5764 38.1576L25.0541 38.6799C24.908 38.826 24.8276 39.0201 24.8276 39.2267C24.8276 39.6531 25.1745 40.0001 25.601 40.0001H29.6552C30.0354 40.0001 30.3448 39.6907 30.3448 39.3104V33.2664C30.3448 32.151 30.6085 31.0341 31.1073 30.0365L32.341 30.6534C31.9617 31.4118 31.7506 32.2556 31.7266 33.1035H35.1724C36.3132 33.1035 37.2414 34.0317 37.2414 35.1725C37.2414 36.3133 36.3132 37.2415 35.1724 37.2415H31.7241V38.6208H35.6467C38.0472 38.6207 40 36.6678 40 34.2674C40 33.2356 39.6319 32.2343 38.9637 31.448ZM8.96552 1.37931C9.34638 1.37931 9.65517 1.6881 9.65517 2.06897C9.65517 2.44983 9.34638 2.75862 8.96552 2.75862C8.58465 2.75862 8.27586 2.44983 8.27586 2.06897C8.27586 1.6881 8.58465 1.37931 8.96552 1.37931Z" fill="#2D3E30"/>
</svg>
